<svg width="32" height="32" viewBox="0 0 32 32" fill="none" xmlns="http://www.w3.org/2000/svg">
  <defs>
    <radialGradient id="faviconGradient" cx="50%" cy="30%" r="70%">
      <stop offset="0%" stop-color="#A855F7" stop-opacity="0.9"/>
      <stop offset="40%" stop-color="#8B5CF6" stop-opacity="0.7"/>
      <stop offset="100%" stop-color="#7C3AED" stop-opacity="0.8"/>
    </radialGradient>
    <linearGradient id="faviconRim" x1="0%" y1="0%" x2="100%" y2="100%">
      <stop offset="0%" stop-color="#00E5FF" stop-opacity="0.6"/>
      <stop offset="50%" stop-color="#8B5CF6" stop-opacity="0.4"/>
      <stop offset="100%" stop-color="#00E5FF" stop-opacity="0.6"/>
    </linearGradient>
  </defs>
  
  <!-- Background -->
  <rect width="32" height="32" rx="8" fill="#0C0F14"/>
  
  <!-- Outer glow ring -->
  <circle cx="16" cy="16" r="15" fill="none" stroke="url(#faviconRim)" stroke-width="1"/>
  
  <!-- Main coin -->
  <circle cx="16" cy="16" r="13" fill="url(#faviconGradient)" stroke="#8B5CF6" stroke-width="0.5"/>
  <circle cx="16" cy="16" r="10" fill="#0C0F14" stroke="#8B5CF6" stroke-width="0.5"/>
  
  <!-- IS Monogram -->
  <g transform="translate(16, 16) scale(0.4)">
    <!-- I -->
    <rect x="-18" y="-12" width="4" height="24" fill="#8B5CF6"/>
    <rect x="-22" y="-12" width="12" height="3" fill="#8B5CF6"/>
    <rect x="-22" y="9" width="12" height="3" fill="#8B5CF6"/>
    
    <!-- S -->
    <path d="M2 -12 Q12 -12 12 -6 Q12 0 2 0 Q12 0 12 6 Q12 12 2 12 L-2 12 Q-6 12 -6 8" 
          fill="none" stroke="#8B5CF6" stroke-width="3.5" stroke-linecap="round"/>
    
    <!-- Star spark -->
    <circle cx="-16" cy="-18" r="2" fill="#00E5FF"/>
    <path d="M-16 -22 L-15 -19 L-12 -18 L-15 -17 L-16 -14 L-17 -17 L-20 -18 L-17 -19 Z" 
          fill="#00E5FF"/>
  </g>
</svg>